<mxfile host="app.diagrams.net" agent="Mozilla/5.0 (Windows NT 10.0; Win64; x64) AppleWebKit/537.36 (KHTML, like Gecko) Chrome/136.0.0.0 Safari/537.36" version="27.0.6">
  <diagram name="Seite-1" id="JBDNN14yZHlDi9cgjCYG">
    <mxGraphModel dx="1426" dy="863" grid="1" gridSize="10" guides="1" tooltips="1" connect="1" arrows="1" fold="1" page="1" pageScale="1" pageWidth="1169" pageHeight="827" math="0" shadow="0">
      <root>
        <mxCell id="0" />
        <mxCell id="1" parent="0" />
        <mxCell id="DUQQMZTj3ee7KA1zqvh8-1" value="class&amp;nbsp; PokemonApiAbrufer" style="swimlane;fontStyle=1;align=center;verticalAlign=top;childLayout=stackLayout;horizontal=1;startSize=26;horizontalStack=0;resizeParent=1;resizeParentMax=0;resizeLast=0;collapsible=1;marginBottom=0;whiteSpace=wrap;html=1;fontSize=14;" parent="1" vertex="1">
          <mxGeometry x="700" y="200" width="240" height="104" as="geometry" />
        </mxCell>
        <mxCell id="DUQQMZTj3ee7KA1zqvh8-2" value="- client: HttpClient&lt;div&gt;- gson: Gson&lt;/div&gt;" style="text;strokeColor=none;fillColor=none;align=left;verticalAlign=top;spacingLeft=4;spacingRight=4;overflow=hidden;rotatable=0;points=[[0,0.5],[1,0.5]];portConstraint=eastwest;whiteSpace=wrap;html=1;fontSize=14;" parent="DUQQMZTj3ee7KA1zqvh8-1" vertex="1">
          <mxGeometry y="26" width="240" height="44" as="geometry" />
        </mxCell>
        <mxCell id="DUQQMZTj3ee7KA1zqvh8-3" value="" style="line;strokeWidth=1;fillColor=none;align=left;verticalAlign=middle;spacingTop=-1;spacingLeft=3;spacingRight=3;rotatable=0;labelPosition=right;points=[];portConstraint=eastwest;strokeColor=inherit;fontSize=14;" parent="DUQQMZTj3ee7KA1zqvh8-1" vertex="1">
          <mxGeometry y="70" width="240" height="8" as="geometry" />
        </mxCell>
        <mxCell id="DUQQMZTj3ee7KA1zqvh8-4" value="+ getJsonString (String): Pokemon" style="text;strokeColor=none;fillColor=none;align=left;verticalAlign=top;spacingLeft=4;spacingRight=4;overflow=hidden;rotatable=0;points=[[0,0.5],[1,0.5]];portConstraint=eastwest;whiteSpace=wrap;html=1;fontSize=14;" parent="DUQQMZTj3ee7KA1zqvh8-1" vertex="1">
          <mxGeometry y="78" width="240" height="26" as="geometry" />
        </mxCell>
        <mxCell id="DUQQMZTj3ee7KA1zqvh8-11" value="&amp;lt;&amp;lt;interface&amp;gt;&amp;gt;&amp;nbsp;&lt;span style=&quot;color: light-dark(rgb(0, 0, 0), rgb(255, 255, 255)); background-color: transparent;&quot;&gt;PokemonApi&lt;/span&gt;" style="swimlane;fontStyle=1;align=center;verticalAlign=top;childLayout=stackLayout;horizontal=1;startSize=26;horizontalStack=0;resizeParent=1;resizeParentMax=0;resizeLast=0;collapsible=1;marginBottom=0;whiteSpace=wrap;html=1;fontSize=14;" parent="1" vertex="1">
          <mxGeometry x="700" y="10" width="240" height="110" as="geometry" />
        </mxCell>
        <mxCell id="DUQQMZTj3ee7KA1zqvh8-12" value="&amp;nbsp;" style="text;strokeColor=none;fillColor=none;align=left;verticalAlign=top;spacingLeft=4;spacingRight=4;overflow=hidden;rotatable=0;points=[[0,0.5],[1,0.5]];portConstraint=eastwest;whiteSpace=wrap;html=1;fontSize=14;" parent="DUQQMZTj3ee7KA1zqvh8-11" vertex="1">
          <mxGeometry y="26" width="240" height="26" as="geometry" />
        </mxCell>
        <mxCell id="DUQQMZTj3ee7KA1zqvh8-13" value="" style="line;strokeWidth=1;fillColor=none;align=left;verticalAlign=middle;spacingTop=-1;spacingLeft=3;spacingRight=3;rotatable=0;labelPosition=right;points=[];portConstraint=eastwest;strokeColor=inherit;fontSize=14;" parent="DUQQMZTj3ee7KA1zqvh8-11" vertex="1">
          <mxGeometry y="52" width="240" height="8" as="geometry" />
        </mxCell>
        <mxCell id="DUQQMZTj3ee7KA1zqvh8-14" value="+ getJsonString (String): Pokemon" style="text;strokeColor=none;fillColor=none;align=left;verticalAlign=top;spacingLeft=4;spacingRight=4;overflow=hidden;rotatable=0;points=[[0,0.5],[1,0.5]];portConstraint=eastwest;whiteSpace=wrap;html=1;fontSize=14;" parent="DUQQMZTj3ee7KA1zqvh8-11" vertex="1">
          <mxGeometry y="60" width="240" height="50" as="geometry" />
        </mxCell>
        <mxCell id="DUQQMZTj3ee7KA1zqvh8-15" value="" style="endArrow=block;dashed=1;endFill=0;endSize=12;html=1;rounded=0;entryX=0.52;entryY=1.077;entryDx=0;entryDy=0;entryPerimeter=0;exitX=0.52;exitY=0;exitDx=0;exitDy=0;exitPerimeter=0;fontSize=14;" parent="1" source="DUQQMZTj3ee7KA1zqvh8-1" target="DUQQMZTj3ee7KA1zqvh8-14" edge="1">
          <mxGeometry width="160" relative="1" as="geometry">
            <mxPoint x="810" y="150" as="sourcePoint" />
            <mxPoint x="970" y="150" as="targetPoint" />
          </mxGeometry>
        </mxCell>
        <mxCell id="DUQQMZTj3ee7KA1zqvh8-16" value="class Main" style="swimlane;fontStyle=1;align=center;verticalAlign=top;childLayout=stackLayout;horizontal=1;startSize=26;horizontalStack=0;resizeParent=1;resizeParentMax=0;resizeLast=0;collapsible=1;marginBottom=0;whiteSpace=wrap;html=1;fontSize=14;" parent="1" vertex="1">
          <mxGeometry x="30" y="460" width="200" height="104" as="geometry" />
        </mxCell>
        <mxCell id="DUQQMZTj3ee7KA1zqvh8-17" value="&amp;nbsp;" style="text;strokeColor=none;fillColor=none;align=left;verticalAlign=top;spacingLeft=4;spacingRight=4;overflow=hidden;rotatable=0;points=[[0,0.5],[1,0.5]];portConstraint=eastwest;whiteSpace=wrap;html=1;fontSize=14;" parent="DUQQMZTj3ee7KA1zqvh8-16" vertex="1">
          <mxGeometry y="26" width="200" height="44" as="geometry" />
        </mxCell>
        <mxCell id="DUQQMZTj3ee7KA1zqvh8-18" value="" style="line;strokeWidth=1;fillColor=none;align=left;verticalAlign=middle;spacingTop=-1;spacingLeft=3;spacingRight=3;rotatable=0;labelPosition=right;points=[];portConstraint=eastwest;strokeColor=inherit;fontSize=14;" parent="DUQQMZTj3ee7KA1zqvh8-16" vertex="1">
          <mxGeometry y="70" width="200" height="8" as="geometry" />
        </mxCell>
        <mxCell id="DUQQMZTj3ee7KA1zqvh8-19" value="&amp;nbsp;" style="text;strokeColor=none;fillColor=none;align=left;verticalAlign=top;spacingLeft=4;spacingRight=4;overflow=hidden;rotatable=0;points=[[0,0.5],[1,0.5]];portConstraint=eastwest;whiteSpace=wrap;html=1;fontSize=14;" parent="DUQQMZTj3ee7KA1zqvh8-16" vertex="1">
          <mxGeometry y="78" width="200" height="26" as="geometry" />
        </mxCell>
        <mxCell id="DUQQMZTj3ee7KA1zqvh8-20" value="class&amp;nbsp; TeamManagerImpl" style="swimlane;fontStyle=1;align=center;verticalAlign=top;childLayout=stackLayout;horizontal=1;startSize=26;horizontalStack=0;resizeParent=1;resizeParentMax=0;resizeLast=0;collapsible=1;marginBottom=0;whiteSpace=wrap;html=1;fontSize=14;" parent="1" vertex="1">
          <mxGeometry x="360" y="198" width="250" height="130" as="geometry" />
        </mxCell>
        <mxCell id="DUQQMZTj3ee7KA1zqvh8-21" value="- mapper: ObjectMapper&lt;div&gt;- gson: Gson&lt;/div&gt;" style="text;strokeColor=none;fillColor=none;align=left;verticalAlign=top;spacingLeft=4;spacingRight=4;overflow=hidden;rotatable=0;points=[[0,0.5],[1,0.5]];portConstraint=eastwest;whiteSpace=wrap;html=1;fontSize=14;" parent="DUQQMZTj3ee7KA1zqvh8-20" vertex="1">
          <mxGeometry y="26" width="250" height="44" as="geometry" />
        </mxCell>
        <mxCell id="DUQQMZTj3ee7KA1zqvh8-22" value="" style="line;strokeWidth=1;fillColor=none;align=left;verticalAlign=middle;spacingTop=-1;spacingLeft=3;spacingRight=3;rotatable=0;labelPosition=right;points=[];portConstraint=eastwest;strokeColor=inherit;fontSize=14;" parent="DUQQMZTj3ee7KA1zqvh8-20" vertex="1">
          <mxGeometry y="70" width="250" height="8" as="geometry" />
        </mxCell>
        <mxCell id="DUQQMZTj3ee7KA1zqvh8-23" value="+ save (List&amp;lt;Pokemon&amp;gt;, String): void&lt;div&gt;+ load (String): List&amp;lt;Pokemon&amp;gt;&lt;/div&gt;" style="text;strokeColor=none;fillColor=none;align=left;verticalAlign=top;spacingLeft=4;spacingRight=4;overflow=hidden;rotatable=0;points=[[0,0.5],[1,0.5]];portConstraint=eastwest;whiteSpace=wrap;html=1;fontSize=14;" parent="DUQQMZTj3ee7KA1zqvh8-20" vertex="1">
          <mxGeometry y="78" width="250" height="52" as="geometry" />
        </mxCell>
        <mxCell id="DUQQMZTj3ee7KA1zqvh8-24" value="&amp;lt;&amp;lt;interface&amp;gt;&amp;gt;&amp;nbsp;&lt;span style=&quot;color: light-dark(rgb(0, 0, 0), rgb(255, 255, 255)); background-color: transparent;&quot;&gt;TeamManager&lt;/span&gt;" style="swimlane;fontStyle=1;align=center;verticalAlign=top;childLayout=stackLayout;horizontal=1;startSize=26;horizontalStack=0;resizeParent=1;resizeParentMax=0;resizeLast=0;collapsible=1;marginBottom=0;whiteSpace=wrap;html=1;fontSize=14;" parent="1" vertex="1">
          <mxGeometry x="360" y="18" width="250" height="100" as="geometry" />
        </mxCell>
        <mxCell id="DUQQMZTj3ee7KA1zqvh8-25" value="&amp;nbsp;" style="text;strokeColor=none;fillColor=none;align=left;verticalAlign=top;spacingLeft=4;spacingRight=4;overflow=hidden;rotatable=0;points=[[0,0.5],[1,0.5]];portConstraint=eastwest;whiteSpace=wrap;html=1;fontSize=14;" parent="DUQQMZTj3ee7KA1zqvh8-24" vertex="1">
          <mxGeometry y="26" width="250" height="26" as="geometry" />
        </mxCell>
        <mxCell id="DUQQMZTj3ee7KA1zqvh8-26" value="" style="line;strokeWidth=1;fillColor=none;align=left;verticalAlign=middle;spacingTop=-1;spacingLeft=3;spacingRight=3;rotatable=0;labelPosition=right;points=[];portConstraint=eastwest;strokeColor=inherit;fontSize=14;" parent="DUQQMZTj3ee7KA1zqvh8-24" vertex="1">
          <mxGeometry y="52" width="250" height="8" as="geometry" />
        </mxCell>
        <mxCell id="DUQQMZTj3ee7KA1zqvh8-27" value="+ save (List&amp;lt;Pokemon&amp;gt;, String): void&lt;div&gt;+ load (String): List&amp;lt;Pokemon&amp;gt;&lt;/div&gt;" style="text;strokeColor=none;fillColor=none;align=left;verticalAlign=top;spacingLeft=4;spacingRight=4;overflow=hidden;rotatable=0;points=[[0,0.5],[1,0.5]];portConstraint=eastwest;whiteSpace=wrap;html=1;fontSize=14;" parent="DUQQMZTj3ee7KA1zqvh8-24" vertex="1">
          <mxGeometry y="60" width="250" height="40" as="geometry" />
        </mxCell>
        <mxCell id="DUQQMZTj3ee7KA1zqvh8-28" value="" style="endArrow=block;dashed=1;endFill=0;endSize=12;html=1;rounded=0;entryX=0.52;entryY=1.077;entryDx=0;entryDy=0;entryPerimeter=0;exitX=0.52;exitY=0;exitDx=0;exitDy=0;exitPerimeter=0;fontSize=14;" parent="1" source="DUQQMZTj3ee7KA1zqvh8-20" target="DUQQMZTj3ee7KA1zqvh8-27" edge="1">
          <mxGeometry width="160" relative="1" as="geometry">
            <mxPoint x="470" y="198" as="sourcePoint" />
            <mxPoint x="630" y="198" as="targetPoint" />
          </mxGeometry>
        </mxCell>
        <mxCell id="DUQQMZTj3ee7KA1zqvh8-29" value="class Pokemon" style="swimlane;fontStyle=1;align=center;verticalAlign=top;childLayout=stackLayout;horizontal=1;startSize=26;horizontalStack=0;resizeParent=1;resizeParentMax=0;resizeLast=0;collapsible=1;marginBottom=0;whiteSpace=wrap;html=1;fontSize=14;" parent="1" vertex="1">
          <mxGeometry x="200" y="900" width="200" height="124" as="geometry" />
        </mxCell>
        <mxCell id="DUQQMZTj3ee7KA1zqvh8-30" value="- name: String&lt;div&gt;- types: List&amp;lt;TypeBox&amp;gt;&lt;/div&gt;&lt;div&gt;- stats:&amp;nbsp; List&amp;lt;StatBox&amp;gt;&lt;/div&gt;" style="text;strokeColor=none;fillColor=none;align=left;verticalAlign=top;spacingLeft=4;spacingRight=4;overflow=hidden;rotatable=0;points=[[0,0.5],[1,0.5]];portConstraint=eastwest;whiteSpace=wrap;html=1;fontSize=14;" parent="DUQQMZTj3ee7KA1zqvh8-29" vertex="1">
          <mxGeometry y="26" width="200" height="64" as="geometry" />
        </mxCell>
        <mxCell id="DUQQMZTj3ee7KA1zqvh8-31" value="" style="line;strokeWidth=1;fillColor=none;align=left;verticalAlign=middle;spacingTop=-1;spacingLeft=3;spacingRight=3;rotatable=0;labelPosition=right;points=[];portConstraint=eastwest;strokeColor=inherit;fontSize=14;" parent="DUQQMZTj3ee7KA1zqvh8-29" vertex="1">
          <mxGeometry y="90" width="200" height="8" as="geometry" />
        </mxCell>
        <mxCell id="DUQQMZTj3ee7KA1zqvh8-32" value="&amp;lt;getters&amp;gt;" style="text;strokeColor=none;fillColor=none;align=left;verticalAlign=top;spacingLeft=4;spacingRight=4;overflow=hidden;rotatable=0;points=[[0,0.5],[1,0.5]];portConstraint=eastwest;whiteSpace=wrap;html=1;fontSize=14;" parent="DUQQMZTj3ee7KA1zqvh8-29" vertex="1">
          <mxGeometry y="98" width="200" height="26" as="geometry" />
        </mxCell>
        <mxCell id="DUQQMZTj3ee7KA1zqvh8-33" value="class TypeBox" style="swimlane;fontStyle=1;align=center;verticalAlign=top;childLayout=stackLayout;horizontal=1;startSize=26;horizontalStack=0;resizeParent=1;resizeParentMax=0;resizeLast=0;collapsible=1;marginBottom=0;whiteSpace=wrap;html=1;fontSize=14;" parent="1" vertex="1">
          <mxGeometry x="30" y="1080" width="200" height="114" as="geometry" />
        </mxCell>
        <mxCell id="DUQQMZTj3ee7KA1zqvh8-34" value="- slot: int&lt;div&gt;&lt;div&gt;- type: Type&lt;/div&gt;&lt;div&gt;&lt;br&gt;&lt;/div&gt;&lt;/div&gt;" style="text;strokeColor=none;fillColor=none;align=left;verticalAlign=top;spacingLeft=4;spacingRight=4;overflow=hidden;rotatable=0;points=[[0,0.5],[1,0.5]];portConstraint=eastwest;whiteSpace=wrap;html=1;fontSize=14;" parent="DUQQMZTj3ee7KA1zqvh8-33" vertex="1">
          <mxGeometry y="26" width="200" height="54" as="geometry" />
        </mxCell>
        <mxCell id="DUQQMZTj3ee7KA1zqvh8-35" value="" style="line;strokeWidth=1;fillColor=none;align=left;verticalAlign=middle;spacingTop=-1;spacingLeft=3;spacingRight=3;rotatable=0;labelPosition=right;points=[];portConstraint=eastwest;strokeColor=inherit;fontSize=14;" parent="DUQQMZTj3ee7KA1zqvh8-33" vertex="1">
          <mxGeometry y="80" width="200" height="8" as="geometry" />
        </mxCell>
        <mxCell id="DUQQMZTj3ee7KA1zqvh8-36" value="&amp;lt;getters&amp;gt;" style="text;strokeColor=none;fillColor=none;align=left;verticalAlign=top;spacingLeft=4;spacingRight=4;overflow=hidden;rotatable=0;points=[[0,0.5],[1,0.5]];portConstraint=eastwest;whiteSpace=wrap;html=1;fontSize=14;" parent="DUQQMZTj3ee7KA1zqvh8-33" vertex="1">
          <mxGeometry y="88" width="200" height="26" as="geometry" />
        </mxCell>
        <mxCell id="DUQQMZTj3ee7KA1zqvh8-40" value="" style="endArrow=circlePlus;startArrow=none;endFill=0;startFill=0;endSize=8;html=1;labelBackgroundColor=none;rounded=0;exitX=0.5;exitY=0;exitDx=0;exitDy=0;entryX=0.46;entryY=1.038;entryDx=0;entryDy=0;entryPerimeter=0;" parent="1" source="DUQQMZTj3ee7KA1zqvh8-33" target="DUQQMZTj3ee7KA1zqvh8-32" edge="1">
          <mxGeometry width="160" relative="1" as="geometry">
            <mxPoint x="355" y="1062" as="sourcePoint" />
            <mxPoint x="345" y="1068" as="targetPoint" />
          </mxGeometry>
        </mxCell>
        <mxCell id="DUQQMZTj3ee7KA1zqvh8-41" value="class Type" style="swimlane;fontStyle=1;align=center;verticalAlign=top;childLayout=stackLayout;horizontal=1;startSize=26;horizontalStack=0;resizeParent=1;resizeParentMax=0;resizeLast=0;collapsible=1;marginBottom=0;whiteSpace=wrap;html=1;fontSize=14;" parent="1" vertex="1">
          <mxGeometry x="30" y="1250" width="200" height="94" as="geometry" />
        </mxCell>
        <mxCell id="DUQQMZTj3ee7KA1zqvh8-42" value="&lt;div&gt;&lt;div&gt;-name: String&lt;/div&gt;&lt;/div&gt;" style="text;strokeColor=none;fillColor=none;align=left;verticalAlign=top;spacingLeft=4;spacingRight=4;overflow=hidden;rotatable=0;points=[[0,0.5],[1,0.5]];portConstraint=eastwest;whiteSpace=wrap;html=1;fontSize=14;" parent="DUQQMZTj3ee7KA1zqvh8-41" vertex="1">
          <mxGeometry y="26" width="200" height="34" as="geometry" />
        </mxCell>
        <mxCell id="DUQQMZTj3ee7KA1zqvh8-43" value="" style="line;strokeWidth=1;fillColor=none;align=left;verticalAlign=middle;spacingTop=-1;spacingLeft=3;spacingRight=3;rotatable=0;labelPosition=right;points=[];portConstraint=eastwest;strokeColor=inherit;fontSize=14;" parent="DUQQMZTj3ee7KA1zqvh8-41" vertex="1">
          <mxGeometry y="60" width="200" height="8" as="geometry" />
        </mxCell>
        <mxCell id="DUQQMZTj3ee7KA1zqvh8-44" value="&amp;lt;getters&amp;gt;" style="text;strokeColor=none;fillColor=none;align=left;verticalAlign=top;spacingLeft=4;spacingRight=4;overflow=hidden;rotatable=0;points=[[0,0.5],[1,0.5]];portConstraint=eastwest;whiteSpace=wrap;html=1;fontSize=14;" parent="DUQQMZTj3ee7KA1zqvh8-41" vertex="1">
          <mxGeometry y="68" width="200" height="26" as="geometry" />
        </mxCell>
        <mxCell id="DUQQMZTj3ee7KA1zqvh8-45" value="" style="endArrow=circlePlus;startArrow=none;endFill=0;startFill=0;endSize=8;html=1;labelBackgroundColor=none;rounded=0;exitX=0.5;exitY=0;exitDx=0;exitDy=0;entryX=0.54;entryY=1.115;entryDx=0;entryDy=0;entryPerimeter=0;" parent="1" source="DUQQMZTj3ee7KA1zqvh8-41" target="DUQQMZTj3ee7KA1zqvh8-36" edge="1">
          <mxGeometry width="160" relative="1" as="geometry">
            <mxPoint x="325" y="1171" as="sourcePoint" />
            <mxPoint x="407" y="1128" as="targetPoint" />
          </mxGeometry>
        </mxCell>
        <mxCell id="DUQQMZTj3ee7KA1zqvh8-46" value="class StatBox" style="swimlane;fontStyle=1;align=center;verticalAlign=top;childLayout=stackLayout;horizontal=1;startSize=26;horizontalStack=0;resizeParent=1;resizeParentMax=0;resizeLast=0;collapsible=1;marginBottom=0;whiteSpace=wrap;html=1;fontSize=14;" parent="1" vertex="1">
          <mxGeometry x="350" y="1080" width="200" height="114" as="geometry" />
        </mxCell>
        <mxCell id="DUQQMZTj3ee7KA1zqvh8-47" value="- base_stat: int&lt;div&gt;&lt;div&gt;- stat: Stat&lt;/div&gt;&lt;div&gt;&lt;br&gt;&lt;/div&gt;&lt;/div&gt;" style="text;strokeColor=none;fillColor=none;align=left;verticalAlign=top;spacingLeft=4;spacingRight=4;overflow=hidden;rotatable=0;points=[[0,0.5],[1,0.5]];portConstraint=eastwest;whiteSpace=wrap;html=1;fontSize=14;" parent="DUQQMZTj3ee7KA1zqvh8-46" vertex="1">
          <mxGeometry y="26" width="200" height="54" as="geometry" />
        </mxCell>
        <mxCell id="DUQQMZTj3ee7KA1zqvh8-48" value="" style="line;strokeWidth=1;fillColor=none;align=left;verticalAlign=middle;spacingTop=-1;spacingLeft=3;spacingRight=3;rotatable=0;labelPosition=right;points=[];portConstraint=eastwest;strokeColor=inherit;fontSize=14;" parent="DUQQMZTj3ee7KA1zqvh8-46" vertex="1">
          <mxGeometry y="80" width="200" height="8" as="geometry" />
        </mxCell>
        <mxCell id="DUQQMZTj3ee7KA1zqvh8-49" value="&amp;lt;getters&amp;gt;" style="text;strokeColor=none;fillColor=none;align=left;verticalAlign=top;spacingLeft=4;spacingRight=4;overflow=hidden;rotatable=0;points=[[0,0.5],[1,0.5]];portConstraint=eastwest;whiteSpace=wrap;html=1;fontSize=14;" parent="DUQQMZTj3ee7KA1zqvh8-46" vertex="1">
          <mxGeometry y="88" width="200" height="26" as="geometry" />
        </mxCell>
        <mxCell id="DUQQMZTj3ee7KA1zqvh8-50" value="class Stat" style="swimlane;fontStyle=1;align=center;verticalAlign=top;childLayout=stackLayout;horizontal=1;startSize=26;horizontalStack=0;resizeParent=1;resizeParentMax=0;resizeLast=0;collapsible=1;marginBottom=0;whiteSpace=wrap;html=1;fontSize=14;" parent="1" vertex="1">
          <mxGeometry x="350" y="1250" width="200" height="94" as="geometry" />
        </mxCell>
        <mxCell id="DUQQMZTj3ee7KA1zqvh8-51" value="&lt;div&gt;&lt;div&gt;-name: String&lt;/div&gt;&lt;/div&gt;" style="text;strokeColor=none;fillColor=none;align=left;verticalAlign=top;spacingLeft=4;spacingRight=4;overflow=hidden;rotatable=0;points=[[0,0.5],[1,0.5]];portConstraint=eastwest;whiteSpace=wrap;html=1;fontSize=14;" parent="DUQQMZTj3ee7KA1zqvh8-50" vertex="1">
          <mxGeometry y="26" width="200" height="34" as="geometry" />
        </mxCell>
        <mxCell id="DUQQMZTj3ee7KA1zqvh8-52" value="" style="line;strokeWidth=1;fillColor=none;align=left;verticalAlign=middle;spacingTop=-1;spacingLeft=3;spacingRight=3;rotatable=0;labelPosition=right;points=[];portConstraint=eastwest;strokeColor=inherit;fontSize=14;" parent="DUQQMZTj3ee7KA1zqvh8-50" vertex="1">
          <mxGeometry y="60" width="200" height="8" as="geometry" />
        </mxCell>
        <mxCell id="DUQQMZTj3ee7KA1zqvh8-53" value="&amp;lt;getters&amp;gt;" style="text;strokeColor=none;fillColor=none;align=left;verticalAlign=top;spacingLeft=4;spacingRight=4;overflow=hidden;rotatable=0;points=[[0,0.5],[1,0.5]];portConstraint=eastwest;whiteSpace=wrap;html=1;fontSize=14;" parent="DUQQMZTj3ee7KA1zqvh8-50" vertex="1">
          <mxGeometry y="68" width="200" height="26" as="geometry" />
        </mxCell>
        <mxCell id="DUQQMZTj3ee7KA1zqvh8-54" value="" style="endArrow=circlePlus;startArrow=none;endFill=0;startFill=0;endSize=8;html=1;labelBackgroundColor=none;rounded=0;exitX=0.5;exitY=0;exitDx=0;exitDy=0;entryX=0.47;entryY=1.154;entryDx=0;entryDy=0;entryPerimeter=0;" parent="1" source="DUQQMZTj3ee7KA1zqvh8-50" target="DUQQMZTj3ee7KA1zqvh8-49" edge="1">
          <mxGeometry width="160" relative="1" as="geometry">
            <mxPoint x="625" y="1171" as="sourcePoint" />
            <mxPoint x="707" y="1128" as="targetPoint" />
          </mxGeometry>
        </mxCell>
        <mxCell id="DUQQMZTj3ee7KA1zqvh8-55" value="" style="endArrow=circlePlus;startArrow=none;endFill=0;startFill=0;endSize=8;html=1;labelBackgroundColor=none;rounded=0;entryX=0.565;entryY=1.115;entryDx=0;entryDy=0;entryPerimeter=0;exitX=0.5;exitY=0;exitDx=0;exitDy=0;" parent="1" source="DUQQMZTj3ee7KA1zqvh8-46" target="DUQQMZTj3ee7KA1zqvh8-32" edge="1">
          <mxGeometry width="160" relative="1" as="geometry">
            <mxPoint x="385" y="1088" as="sourcePoint" />
            <mxPoint x="477" y="1038" as="targetPoint" />
          </mxGeometry>
        </mxCell>
        <mxCell id="DUQQMZTj3ee7KA1zqvh8-56" value="class&amp;nbsp; CommandHandler" style="swimlane;fontStyle=1;align=center;verticalAlign=top;childLayout=stackLayout;horizontal=1;startSize=26;horizontalStack=0;resizeParent=1;resizeParentMax=0;resizeLast=0;collapsible=1;marginBottom=0;whiteSpace=wrap;html=1;fontSize=14;" parent="1" vertex="1">
          <mxGeometry x="30" y="655" width="250" height="150" as="geometry" />
        </mxCell>
        <mxCell id="DUQQMZTj3ee7KA1zqvh8-57" value="- api: PokemonApiAbrufer&lt;div&gt;- teamService: TeamService&lt;/div&gt;&lt;div&gt;- scanner: Scanner&lt;/div&gt;" style="text;strokeColor=none;fillColor=none;align=left;verticalAlign=top;spacingLeft=4;spacingRight=4;overflow=hidden;rotatable=0;points=[[0,0.5],[1,0.5]];portConstraint=eastwest;whiteSpace=wrap;html=1;fontSize=14;" parent="DUQQMZTj3ee7KA1zqvh8-56" vertex="1">
          <mxGeometry y="26" width="250" height="64" as="geometry" />
        </mxCell>
        <mxCell id="DUQQMZTj3ee7KA1zqvh8-58" value="" style="line;strokeWidth=1;fillColor=none;align=left;verticalAlign=middle;spacingTop=-1;spacingLeft=3;spacingRight=3;rotatable=0;labelPosition=right;points=[];portConstraint=eastwest;strokeColor=inherit;fontSize=14;" parent="DUQQMZTj3ee7KA1zqvh8-56" vertex="1">
          <mxGeometry y="90" width="250" height="8" as="geometry" />
        </mxCell>
        <mxCell id="DUQQMZTj3ee7KA1zqvh8-59" value="+ handle () : Boolean&lt;div&gt;- printInfo (Pokemon): void&lt;/div&gt;" style="text;strokeColor=none;fillColor=none;align=left;verticalAlign=top;spacingLeft=4;spacingRight=4;overflow=hidden;rotatable=0;points=[[0,0.5],[1,0.5]];portConstraint=eastwest;whiteSpace=wrap;html=1;fontSize=14;" parent="DUQQMZTj3ee7KA1zqvh8-56" vertex="1">
          <mxGeometry y="98" width="250" height="52" as="geometry" />
        </mxCell>
        <mxCell id="DUQQMZTj3ee7KA1zqvh8-60" value="class&amp;nbsp; TeamService" style="swimlane;fontStyle=1;align=center;verticalAlign=top;childLayout=stackLayout;horizontal=1;startSize=26;horizontalStack=0;resizeParent=1;resizeParentMax=0;resizeLast=0;collapsible=1;marginBottom=0;whiteSpace=wrap;html=1;fontSize=14;" parent="1" vertex="1">
          <mxGeometry x="360" y="378" width="250" height="180" as="geometry" />
        </mxCell>
        <mxCell id="DUQQMZTj3ee7KA1zqvh8-61" value="- team: List&amp;lt;Pokemon&amp;gt;&lt;div&gt;- teamManager : TeamManagerImpl&lt;/div&gt;" style="text;strokeColor=none;fillColor=none;align=left;verticalAlign=top;spacingLeft=4;spacingRight=4;overflow=hidden;rotatable=0;points=[[0,0.5],[1,0.5]];portConstraint=eastwest;whiteSpace=wrap;html=1;fontSize=14;" parent="DUQQMZTj3ee7KA1zqvh8-60" vertex="1">
          <mxGeometry y="26" width="250" height="64" as="geometry" />
        </mxCell>
        <mxCell id="DUQQMZTj3ee7KA1zqvh8-62" value="" style="line;strokeWidth=1;fillColor=none;align=left;verticalAlign=middle;spacingTop=-1;spacingLeft=3;spacingRight=3;rotatable=0;labelPosition=right;points=[];portConstraint=eastwest;strokeColor=inherit;fontSize=14;" parent="DUQQMZTj3ee7KA1zqvh8-60" vertex="1">
          <mxGeometry y="90" width="250" height="8" as="geometry" />
        </mxCell>
        <mxCell id="DUQQMZTj3ee7KA1zqvh8-63" value="+ add (Pokemon) : void&lt;div&gt;+ getTeam () : List&amp;lt;Pokemon&amp;gt;&lt;/div&gt;&lt;div&gt;+ saveTeam (String) : void&lt;/div&gt;&lt;div&gt;+ loadTeam (String) : void&lt;/div&gt;" style="text;strokeColor=none;fillColor=none;align=left;verticalAlign=top;spacingLeft=4;spacingRight=4;overflow=hidden;rotatable=0;points=[[0,0.5],[1,0.5]];portConstraint=eastwest;whiteSpace=wrap;html=1;fontSize=14;" parent="DUQQMZTj3ee7KA1zqvh8-60" vertex="1">
          <mxGeometry y="98" width="250" height="82" as="geometry" />
        </mxCell>
        <mxCell id="DUQQMZTj3ee7KA1zqvh8-65" value="" style="endArrow=none;html=1;rounded=0;entryX=0.53;entryY=1.154;entryDx=0;entryDy=0;entryPerimeter=0;" parent="1" target="DUQQMZTj3ee7KA1zqvh8-19" edge="1">
          <mxGeometry width="50" height="50" relative="1" as="geometry">
            <mxPoint x="136" y="650" as="sourcePoint" />
            <mxPoint x="280" y="600" as="targetPoint" />
          </mxGeometry>
        </mxCell>
        <mxCell id="DUQQMZTj3ee7KA1zqvh8-66" value="" style="endArrow=none;html=1;rounded=0;exitX=0.5;exitY=0;exitDx=0;exitDy=0;entryX=0.44;entryY=1.038;entryDx=0;entryDy=0;entryPerimeter=0;" parent="1" source="DUQQMZTj3ee7KA1zqvh8-29" target="DUQQMZTj3ee7KA1zqvh8-59" edge="1">
          <mxGeometry width="50" height="50" relative="1" as="geometry">
            <mxPoint x="243" y="602" as="sourcePoint" />
            <mxPoint x="240" y="530" as="targetPoint" />
            <Array as="points" />
          </mxGeometry>
        </mxCell>
        <mxCell id="DUQQMZTj3ee7KA1zqvh8-67" value="" style="endArrow=none;html=1;rounded=0;exitX=1;exitY=0.12;exitDx=0;exitDy=0;entryX=0.44;entryY=1.012;entryDx=0;entryDy=0;entryPerimeter=0;exitPerimeter=0;" parent="1" source="DUQQMZTj3ee7KA1zqvh8-56" target="DUQQMZTj3ee7KA1zqvh8-63" edge="1">
          <mxGeometry width="50" height="50" relative="1" as="geometry">
            <mxPoint x="533" y="572" as="sourcePoint" />
            <mxPoint x="530" y="500" as="targetPoint" />
            <Array as="points">
              <mxPoint x="470" y="673" />
            </Array>
          </mxGeometry>
        </mxCell>
        <mxCell id="DUQQMZTj3ee7KA1zqvh8-68" value="" style="endArrow=none;html=1;rounded=0;exitX=0.5;exitY=0;exitDx=0;exitDy=0;entryX=0.496;entryY=1.077;entryDx=0;entryDy=0;entryPerimeter=0;" parent="1" source="DUQQMZTj3ee7KA1zqvh8-60" target="DUQQMZTj3ee7KA1zqvh8-23" edge="1">
          <mxGeometry width="50" height="50" relative="1" as="geometry">
            <mxPoint x="243" y="480" as="sourcePoint" />
            <mxPoint x="440" y="368" as="targetPoint" />
          </mxGeometry>
        </mxCell>
        <mxCell id="hDSUMhVikl_SaHQKMJHQ-1" value="class TypeInfo" style="swimlane;fontStyle=1;align=center;verticalAlign=top;childLayout=stackLayout;horizontal=1;startSize=26;horizontalStack=0;resizeParent=1;resizeParentMax=0;resizeLast=0;collapsible=1;marginBottom=0;whiteSpace=wrap;html=1;fontSize=14;" vertex="1" parent="1">
          <mxGeometry x="1080" y="200" width="260" height="124" as="geometry" />
        </mxCell>
        <mxCell id="hDSUMhVikl_SaHQKMJHQ-2" value="- damage_relations: DamageRelations&lt;div&gt;- pokemon: List&amp;lt;PokemonSlot&amp;gt;&lt;/div&gt;" style="text;strokeColor=none;fillColor=none;align=left;verticalAlign=top;spacingLeft=4;spacingRight=4;overflow=hidden;rotatable=0;points=[[0,0.5],[1,0.5]];portConstraint=eastwest;whiteSpace=wrap;html=1;fontSize=14;" vertex="1" parent="hDSUMhVikl_SaHQKMJHQ-1">
          <mxGeometry y="26" width="260" height="64" as="geometry" />
        </mxCell>
        <mxCell id="hDSUMhVikl_SaHQKMJHQ-3" value="" style="line;strokeWidth=1;fillColor=none;align=left;verticalAlign=middle;spacingTop=-1;spacingLeft=3;spacingRight=3;rotatable=0;labelPosition=right;points=[];portConstraint=eastwest;strokeColor=inherit;fontSize=14;" vertex="1" parent="hDSUMhVikl_SaHQKMJHQ-1">
          <mxGeometry y="90" width="260" height="8" as="geometry" />
        </mxCell>
        <mxCell id="hDSUMhVikl_SaHQKMJHQ-4" value="&amp;lt;getters&amp;gt;" style="text;strokeColor=none;fillColor=none;align=left;verticalAlign=top;spacingLeft=4;spacingRight=4;overflow=hidden;rotatable=0;points=[[0,0.5],[1,0.5]];portConstraint=eastwest;whiteSpace=wrap;html=1;fontSize=14;" vertex="1" parent="hDSUMhVikl_SaHQKMJHQ-1">
          <mxGeometry y="98" width="260" height="26" as="geometry" />
        </mxCell>
        <mxCell id="hDSUMhVikl_SaHQKMJHQ-5" value="class DamageRelations" style="swimlane;fontStyle=1;align=center;verticalAlign=top;childLayout=stackLayout;horizontal=1;startSize=26;horizontalStack=0;resizeParent=1;resizeParentMax=0;resizeLast=0;collapsible=1;marginBottom=0;whiteSpace=wrap;html=1;fontSize=14;" vertex="1" parent="1">
          <mxGeometry x="910" y="380" width="260" height="114" as="geometry" />
        </mxCell>
        <mxCell id="hDSUMhVikl_SaHQKMJHQ-6" value="- double_damage_to: List&amp;lt;TypeRef&amp;gt;&lt;div&gt;- double_damage_from: List&amp;lt;TypeRef&amp;gt;&lt;div&gt;&lt;div&gt;&lt;br&gt;&lt;/div&gt;&lt;/div&gt;&lt;/div&gt;" style="text;strokeColor=none;fillColor=none;align=left;verticalAlign=top;spacingLeft=4;spacingRight=4;overflow=hidden;rotatable=0;points=[[0,0.5],[1,0.5]];portConstraint=eastwest;whiteSpace=wrap;html=1;fontSize=14;" vertex="1" parent="hDSUMhVikl_SaHQKMJHQ-5">
          <mxGeometry y="26" width="260" height="54" as="geometry" />
        </mxCell>
        <mxCell id="hDSUMhVikl_SaHQKMJHQ-7" value="" style="line;strokeWidth=1;fillColor=none;align=left;verticalAlign=middle;spacingTop=-1;spacingLeft=3;spacingRight=3;rotatable=0;labelPosition=right;points=[];portConstraint=eastwest;strokeColor=inherit;fontSize=14;" vertex="1" parent="hDSUMhVikl_SaHQKMJHQ-5">
          <mxGeometry y="80" width="260" height="8" as="geometry" />
        </mxCell>
        <mxCell id="hDSUMhVikl_SaHQKMJHQ-8" value="&amp;lt;getters&amp;gt;" style="text;strokeColor=none;fillColor=none;align=left;verticalAlign=top;spacingLeft=4;spacingRight=4;overflow=hidden;rotatable=0;points=[[0,0.5],[1,0.5]];portConstraint=eastwest;whiteSpace=wrap;html=1;fontSize=14;" vertex="1" parent="hDSUMhVikl_SaHQKMJHQ-5">
          <mxGeometry y="88" width="260" height="26" as="geometry" />
        </mxCell>
        <mxCell id="hDSUMhVikl_SaHQKMJHQ-9" value="" style="endArrow=circlePlus;startArrow=none;endFill=0;startFill=0;endSize=8;html=1;labelBackgroundColor=none;rounded=0;exitX=0.5;exitY=0;exitDx=0;exitDy=0;entryX=0.46;entryY=1.038;entryDx=0;entryDy=0;entryPerimeter=0;" edge="1" parent="1" source="hDSUMhVikl_SaHQKMJHQ-5" target="hDSUMhVikl_SaHQKMJHQ-4">
          <mxGeometry width="160" relative="1" as="geometry">
            <mxPoint x="1235" y="362" as="sourcePoint" />
            <mxPoint x="1225" y="368" as="targetPoint" />
          </mxGeometry>
        </mxCell>
        <mxCell id="hDSUMhVikl_SaHQKMJHQ-10" value="class TypeRef" style="swimlane;fontStyle=1;align=center;verticalAlign=top;childLayout=stackLayout;horizontal=1;startSize=26;horizontalStack=0;resizeParent=1;resizeParentMax=0;resizeLast=0;collapsible=1;marginBottom=0;whiteSpace=wrap;html=1;fontSize=14;" vertex="1" parent="1">
          <mxGeometry x="910" y="550" width="200" height="94" as="geometry" />
        </mxCell>
        <mxCell id="hDSUMhVikl_SaHQKMJHQ-11" value="&lt;div&gt;&lt;div&gt;-name: String&lt;/div&gt;&lt;/div&gt;" style="text;strokeColor=none;fillColor=none;align=left;verticalAlign=top;spacingLeft=4;spacingRight=4;overflow=hidden;rotatable=0;points=[[0,0.5],[1,0.5]];portConstraint=eastwest;whiteSpace=wrap;html=1;fontSize=14;" vertex="1" parent="hDSUMhVikl_SaHQKMJHQ-10">
          <mxGeometry y="26" width="200" height="34" as="geometry" />
        </mxCell>
        <mxCell id="hDSUMhVikl_SaHQKMJHQ-12" value="" style="line;strokeWidth=1;fillColor=none;align=left;verticalAlign=middle;spacingTop=-1;spacingLeft=3;spacingRight=3;rotatable=0;labelPosition=right;points=[];portConstraint=eastwest;strokeColor=inherit;fontSize=14;" vertex="1" parent="hDSUMhVikl_SaHQKMJHQ-10">
          <mxGeometry y="60" width="200" height="8" as="geometry" />
        </mxCell>
        <mxCell id="hDSUMhVikl_SaHQKMJHQ-13" value="&amp;lt;getters&amp;gt;" style="text;strokeColor=none;fillColor=none;align=left;verticalAlign=top;spacingLeft=4;spacingRight=4;overflow=hidden;rotatable=0;points=[[0,0.5],[1,0.5]];portConstraint=eastwest;whiteSpace=wrap;html=1;fontSize=14;" vertex="1" parent="hDSUMhVikl_SaHQKMJHQ-10">
          <mxGeometry y="68" width="200" height="26" as="geometry" />
        </mxCell>
        <mxCell id="hDSUMhVikl_SaHQKMJHQ-14" value="" style="endArrow=circlePlus;startArrow=none;endFill=0;startFill=0;endSize=8;html=1;labelBackgroundColor=none;rounded=0;exitX=0.5;exitY=0;exitDx=0;exitDy=0;entryX=0.54;entryY=1.115;entryDx=0;entryDy=0;entryPerimeter=0;" edge="1" parent="1" source="hDSUMhVikl_SaHQKMJHQ-10" target="hDSUMhVikl_SaHQKMJHQ-8">
          <mxGeometry width="160" relative="1" as="geometry">
            <mxPoint x="1205" y="471" as="sourcePoint" />
            <mxPoint x="1287" y="428" as="targetPoint" />
          </mxGeometry>
        </mxCell>
        <mxCell id="hDSUMhVikl_SaHQKMJHQ-15" value="class PokemonSlot" style="swimlane;fontStyle=1;align=center;verticalAlign=top;childLayout=stackLayout;horizontal=1;startSize=26;horizontalStack=0;resizeParent=1;resizeParentMax=0;resizeLast=0;collapsible=1;marginBottom=0;whiteSpace=wrap;html=1;fontSize=14;" vertex="1" parent="1">
          <mxGeometry x="1230" y="380" width="200" height="114" as="geometry" />
        </mxCell>
        <mxCell id="hDSUMhVikl_SaHQKMJHQ-16" value="- pokemon: PokemonRef" style="text;strokeColor=none;fillColor=none;align=left;verticalAlign=top;spacingLeft=4;spacingRight=4;overflow=hidden;rotatable=0;points=[[0,0.5],[1,0.5]];portConstraint=eastwest;whiteSpace=wrap;html=1;fontSize=14;" vertex="1" parent="hDSUMhVikl_SaHQKMJHQ-15">
          <mxGeometry y="26" width="200" height="54" as="geometry" />
        </mxCell>
        <mxCell id="hDSUMhVikl_SaHQKMJHQ-17" value="" style="line;strokeWidth=1;fillColor=none;align=left;verticalAlign=middle;spacingTop=-1;spacingLeft=3;spacingRight=3;rotatable=0;labelPosition=right;points=[];portConstraint=eastwest;strokeColor=inherit;fontSize=14;" vertex="1" parent="hDSUMhVikl_SaHQKMJHQ-15">
          <mxGeometry y="80" width="200" height="8" as="geometry" />
        </mxCell>
        <mxCell id="hDSUMhVikl_SaHQKMJHQ-18" value="&amp;lt;getters&amp;gt;" style="text;strokeColor=none;fillColor=none;align=left;verticalAlign=top;spacingLeft=4;spacingRight=4;overflow=hidden;rotatable=0;points=[[0,0.5],[1,0.5]];portConstraint=eastwest;whiteSpace=wrap;html=1;fontSize=14;" vertex="1" parent="hDSUMhVikl_SaHQKMJHQ-15">
          <mxGeometry y="88" width="200" height="26" as="geometry" />
        </mxCell>
        <mxCell id="hDSUMhVikl_SaHQKMJHQ-19" value="class PokemonRef" style="swimlane;fontStyle=1;align=center;verticalAlign=top;childLayout=stackLayout;horizontal=1;startSize=26;horizontalStack=0;resizeParent=1;resizeParentMax=0;resizeLast=0;collapsible=1;marginBottom=0;whiteSpace=wrap;html=1;fontSize=14;" vertex="1" parent="1">
          <mxGeometry x="1230" y="550" width="200" height="94" as="geometry" />
        </mxCell>
        <mxCell id="hDSUMhVikl_SaHQKMJHQ-20" value="&lt;div&gt;&lt;div&gt;-name: String&lt;/div&gt;&lt;/div&gt;" style="text;strokeColor=none;fillColor=none;align=left;verticalAlign=top;spacingLeft=4;spacingRight=4;overflow=hidden;rotatable=0;points=[[0,0.5],[1,0.5]];portConstraint=eastwest;whiteSpace=wrap;html=1;fontSize=14;" vertex="1" parent="hDSUMhVikl_SaHQKMJHQ-19">
          <mxGeometry y="26" width="200" height="34" as="geometry" />
        </mxCell>
        <mxCell id="hDSUMhVikl_SaHQKMJHQ-21" value="" style="line;strokeWidth=1;fillColor=none;align=left;verticalAlign=middle;spacingTop=-1;spacingLeft=3;spacingRight=3;rotatable=0;labelPosition=right;points=[];portConstraint=eastwest;strokeColor=inherit;fontSize=14;" vertex="1" parent="hDSUMhVikl_SaHQKMJHQ-19">
          <mxGeometry y="60" width="200" height="8" as="geometry" />
        </mxCell>
        <mxCell id="hDSUMhVikl_SaHQKMJHQ-22" value="&amp;lt;getters&amp;gt;" style="text;strokeColor=none;fillColor=none;align=left;verticalAlign=top;spacingLeft=4;spacingRight=4;overflow=hidden;rotatable=0;points=[[0,0.5],[1,0.5]];portConstraint=eastwest;whiteSpace=wrap;html=1;fontSize=14;" vertex="1" parent="hDSUMhVikl_SaHQKMJHQ-19">
          <mxGeometry y="68" width="200" height="26" as="geometry" />
        </mxCell>
        <mxCell id="hDSUMhVikl_SaHQKMJHQ-23" value="" style="endArrow=circlePlus;startArrow=none;endFill=0;startFill=0;endSize=8;html=1;labelBackgroundColor=none;rounded=0;exitX=0.5;exitY=0;exitDx=0;exitDy=0;entryX=0.47;entryY=1.154;entryDx=0;entryDy=0;entryPerimeter=0;" edge="1" parent="1" source="hDSUMhVikl_SaHQKMJHQ-19" target="hDSUMhVikl_SaHQKMJHQ-18">
          <mxGeometry width="160" relative="1" as="geometry">
            <mxPoint x="1505" y="471" as="sourcePoint" />
            <mxPoint x="1587" y="428" as="targetPoint" />
          </mxGeometry>
        </mxCell>
        <mxCell id="hDSUMhVikl_SaHQKMJHQ-24" value="" style="endArrow=circlePlus;startArrow=none;endFill=0;startFill=0;endSize=8;html=1;labelBackgroundColor=none;rounded=0;entryX=0.565;entryY=1.115;entryDx=0;entryDy=0;entryPerimeter=0;exitX=0.5;exitY=0;exitDx=0;exitDy=0;" edge="1" parent="1" source="hDSUMhVikl_SaHQKMJHQ-15" target="hDSUMhVikl_SaHQKMJHQ-4">
          <mxGeometry width="160" relative="1" as="geometry">
            <mxPoint x="1265" y="388" as="sourcePoint" />
            <mxPoint x="1357" y="338" as="targetPoint" />
          </mxGeometry>
        </mxCell>
        <mxCell id="hDSUMhVikl_SaHQKMJHQ-25" value="" style="endArrow=none;html=1;rounded=0;entryX=1;entryY=-0.068;entryDx=0;entryDy=0;entryPerimeter=0;" edge="1" parent="1" target="DUQQMZTj3ee7KA1zqvh8-2">
          <mxGeometry width="50" height="50" relative="1" as="geometry">
            <mxPoint x="1078" y="220" as="sourcePoint" />
            <mxPoint x="900" y="310" as="targetPoint" />
          </mxGeometry>
        </mxCell>
        <mxCell id="hDSUMhVikl_SaHQKMJHQ-26" value="" style="endArrow=none;html=1;rounded=0;entryX=0.417;entryY=1.231;entryDx=0;entryDy=0;entryPerimeter=0;exitX=1.012;exitY=0.875;exitDx=0;exitDy=0;exitPerimeter=0;" edge="1" parent="1" source="DUQQMZTj3ee7KA1zqvh8-57" target="DUQQMZTj3ee7KA1zqvh8-4">
          <mxGeometry width="50" height="50" relative="1" as="geometry">
            <mxPoint x="800" y="900" as="sourcePoint" />
            <mxPoint x="800" y="350" as="targetPoint" />
            <Array as="points">
              <mxPoint x="800" y="740" />
            </Array>
          </mxGeometry>
        </mxCell>
      </root>
    </mxGraphModel>
  </diagram>
</mxfile>
